<svg width="180" height="52" viewBox="0 0 180 52" fill="none" xmlns="http://www.w3.org/2000/svg">
<rect width="144" height="41.6" rx="8" transform="matrix(1.25 0 0 -1.25 0 52)" fill="#EFF2FC"/>
<path d="M66.505 14.9595C66.505 15.9109 66.2133 16.6729 65.6386 17.2412C64.9777 17.9148 64.1171 18.2538 63.0624 18.2538C62.0544 18.2538 61.1938 17.9091 60.4877 17.2298C59.7803 16.5404 59.4272 15.6945 59.4272 14.6818C59.4272 13.6692 59.7803 12.8232 60.4877 12.1396C61.1938 11.4545 62.0544 11.1099 63.0624 11.1099C63.5642 11.1099 64.0427 11.211 64.4993 11.399C64.9544 11.5884 65.3249 11.8448 65.5933 12.1609L64.9836 12.762C64.5153 12.2222 63.8779 11.9559 63.0624 11.9559C62.3272 11.9559 61.6898 12.2065 61.1486 12.7121C60.6132 13.2191 60.3448 13.8757 60.3448 14.6818C60.3448 15.4879 60.6132 16.1502 61.1486 16.6572C61.6898 17.1571 62.3272 17.4135 63.0624 17.4135C63.8428 17.4135 64.4993 17.1571 65.0171 16.6515C65.3585 16.3168 65.5525 15.8554 65.6035 15.2658H63.0624V14.4426H66.4525C66.4934 14.6206 66.505 14.7929 66.505 14.9595Z" fill="#33354D"/>
<path d="M71.8834 12.1054H68.699V14.2702H71.5698V15.0934H68.699V17.2582H71.8834V18.0971H67.7975V11.2665H71.8834V12.1054Z" fill="#33354D"/>
<path d="M75.679 18.0971H74.7775V12.1054H72.8243V11.2665H77.6337V12.1054H75.679V18.0971Z" fill="#33354D"/>
<path d="M81.1143 18.0971V11.2665H82.0143V18.0971H81.1143Z" fill="#33354D"/>
<path d="M86.004 18.0971H85.1098V12.1054H83.1492V11.2665H87.9645V12.1054H86.004V18.0971Z" fill="#33354D"/>
<path d="M97.07 17.2184C96.38 17.9091 95.5252 18.2538 94.5055 18.2538C93.48 18.2538 92.6252 17.9091 91.9352 17.2184C91.2467 16.529 90.9039 15.6831 90.9039 14.6818C90.9039 13.6806 91.2467 12.8346 91.9352 12.1453C92.6252 11.4545 93.48 11.1099 94.5055 11.1099C95.5193 11.1099 96.3742 11.4545 97.0642 12.151C97.7585 12.846 98.1013 13.6863 98.1013 14.6818C98.1013 15.6831 97.7585 16.529 97.07 17.2184ZM92.6019 16.6458C93.1212 17.1571 93.7528 17.4135 94.5055 17.4135C95.2524 17.4135 95.8899 17.1571 96.4033 16.6458C96.9212 16.1345 97.1838 15.478 97.1838 14.6818C97.1838 13.8857 96.9212 13.2291 96.4033 12.7178C95.8899 12.2065 95.2524 11.9502 94.5055 11.9502C93.7528 11.9502 93.1212 12.2065 92.6019 12.7178C92.084 13.2291 91.8214 13.8857 91.8214 14.6818C91.8214 15.478 92.084 16.1345 92.6019 16.6458Z" fill="#33354D"/>
<path d="M99.366 18.0971V11.2665H100.46L103.862 16.5789H103.901L103.862 15.2658V11.2665H104.762V18.0971H103.822L100.26 12.5227H100.221L100.26 13.8415V18.0971H99.366Z" fill="#33354D"/>
<path d="M90.6821 28.0724C87.9411 28.0724 85.702 30.109 85.702 32.919C85.702 35.7062 87.9411 37.7642 90.6821 37.7642C93.4289 37.7642 95.6681 35.7062 95.6681 32.919C95.6681 30.109 93.4289 28.0724 90.6821 28.0724ZM90.6821 35.8558C89.1781 35.8558 87.8842 34.6437 87.8842 32.919C87.8842 31.1715 89.1781 29.9808 90.6821 29.9808C92.1861 29.9808 93.4858 31.1715 93.4858 32.919C93.4858 34.6437 92.1861 35.8558 90.6821 35.8558ZM79.816 28.0724C77.0692 28.0724 74.8358 30.109 74.8358 32.919C74.8358 35.7062 77.0692 37.7642 79.816 37.7642C82.5613 37.7642 84.7961 35.7062 84.7961 32.919C84.7961 30.109 82.5613 28.0724 79.816 28.0724ZM79.816 35.8558C78.3105 35.8558 77.0123 34.6437 77.0123 32.919C77.0123 31.1715 78.3105 29.9808 79.816 29.9808C81.3199 29.9808 82.6138 31.1715 82.6138 32.919C82.6138 34.6437 81.3199 35.8558 79.816 35.8558ZM66.8857 29.5578V31.6173H71.9227C71.7754 32.768 71.3815 33.614 70.7776 34.2037C70.0424 34.9158 68.8973 35.7062 66.8857 35.7062C63.7859 35.7062 61.3585 33.2637 61.3585 30.2372C61.3585 27.2107 63.7859 24.7681 66.8857 24.7681C68.5618 24.7681 69.7813 25.4076 70.6813 26.2365L72.1678 24.7852C70.9089 23.6117 69.2343 22.7101 66.8857 22.7101C62.6349 22.7101 59.0625 26.087 59.0625 30.2372C59.0625 34.3874 62.6349 37.7642 66.8857 37.7642C69.1832 37.7642 70.9089 37.0293 72.2655 35.6507C73.6557 34.2934 74.089 32.3849 74.089 30.8439C74.089 30.3654 74.0481 29.9253 73.9752 29.5578H66.8857ZM119.759 31.1544C119.349 30.0705 118.084 28.0724 115.508 28.0724C112.956 28.0724 110.83 30.0364 110.83 32.919C110.83 35.6336 112.934 37.7642 115.753 37.7642C118.033 37.7642 119.349 36.4069 119.89 35.6165L118.198 34.5156C117.634 35.3217 116.865 35.8558 115.753 35.8558C114.649 35.8558 113.857 35.3615 113.349 34.3874L119.988 31.7056L119.759 31.1544ZM112.991 32.768C112.934 30.8994 114.477 29.9424 115.583 29.9424C116.449 29.9424 117.184 30.3654 117.43 30.9707L112.991 32.768ZM107.595 37.4694H109.777V23.2271H107.595V37.4694ZM104.021 29.1519H103.948C103.458 28.5851 102.523 28.0724 101.338 28.0724C98.8525 28.0724 96.5798 30.203 96.5798 32.9347C96.5798 35.6507 98.8525 37.7642 101.338 37.7642C102.523 37.7642 103.458 37.2472 103.948 36.6633H104.021V37.3583C104.021 39.2112 103.007 40.2068 101.372 40.2068C100.038 40.2068 99.2113 39.2668 98.87 38.4763L96.9722 39.2497C97.5192 40.5343 98.9677 42.1152 101.372 42.1152C103.93 42.1152 106.089 40.6454 106.089 37.0692V28.3672H104.021V29.1519ZM101.525 35.8558C100.021 35.8558 98.762 34.6266 98.762 32.9347C98.762 31.227 100.021 29.9808 101.525 29.9808C103.007 29.9808 104.175 31.227 104.175 32.9347C104.175 34.6266 103.007 35.8558 101.525 35.8558ZM129.976 23.2271H124.757V37.4694H126.933V32.073H129.976C132.393 32.073 134.764 30.3654 134.764 27.6494C134.764 24.9348 132.387 23.2271 129.976 23.2271ZM130.033 30.0919H126.933V25.2082H130.033C131.658 25.2082 132.586 26.5256 132.586 27.6494C132.586 28.7517 131.658 30.0919 130.033 30.0919ZM143.487 28.0453C141.914 28.0453 140.279 28.7232 139.607 30.2258L141.538 31.0162C141.954 30.2258 142.718 29.9694 143.526 29.9694C144.655 29.9694 145.801 30.6317 145.818 31.801V31.9505C145.424 31.7283 144.581 31.3993 143.544 31.3993C141.464 31.3993 139.344 32.5174 139.344 34.6039C139.344 36.5123 141.048 37.7414 142.963 37.7414C144.428 37.7414 145.236 37.0963 145.744 36.3457H145.818V37.4466H147.92V31.9833C147.92 29.4581 145.989 28.0453 143.487 28.0453ZM143.224 35.8501C142.513 35.8501 141.521 35.5054 141.521 34.6437C141.521 33.5414 142.758 33.1184 143.828 33.1184C144.787 33.1184 145.236 33.3249 145.818 33.5969C145.647 34.9158 144.485 35.8501 143.224 35.8501ZM155.578 28.3572L153.077 34.5312H153.002L150.416 28.3572H148.069L151.955 36.9852L149.738 41.7862H152.012L158 28.3572H155.578ZM135.96 37.4694H138.142V23.2271H135.96V37.4694Z" fill="#33354D"/>
<path d="M22.5412 11.8776C22.1984 12.2279 22 12.7734 22 13.4798V38.6773C22 39.3837 22.1984 39.9292 22.5412 40.2795L22.6258 40.3564L37.0877 26.2424V25.9091L22.6258 11.795L22.5412 11.8776Z" fill="url(#paint0_linear_20005153_5922)"/>
<path d="M41.9027 30.9492L37.0874 26.2421V25.9089L41.9085 21.2018L42.0165 21.263L47.726 24.4348C49.3554 25.3349 49.3554 26.8161 47.726 27.7219L42.0165 30.888L41.9027 30.9492Z" fill="url(#paint1_linear_20005153_5922)"/>
<path d="M42.0161 30.888L37.0871 26.0756L22.5405 40.2794C23.0817 40.8348 23.9643 40.9018 24.9679 40.3463L42.0161 30.888Z" fill="url(#paint2_linear_20005153_5922)"/>
<path d="M42.0161 21.2632L24.9679 11.8049C23.9643 11.2552 23.0817 11.3221 22.5405 11.8776L37.0871 26.0757L42.0161 21.2632Z" fill="url(#paint3_linear_20005153_5922)"/>
<defs>
<linearGradient id="paint0_linear_20005153_5922" x1="35.8037" y1="38.9397" x2="16.6876" y2="19.3604" gradientUnits="userSpaceOnUse">
<stop stop-color="#00A0FF"/>
<stop offset="0.0066" stop-color="#00A1FF"/>
<stop offset="0.2601" stop-color="#00BEFF"/>
<stop offset="0.5122" stop-color="#00D2FF"/>
<stop offset="0.7604" stop-color="#00DFFF"/>
<stop offset="1" stop-color="#00E3FF"/>
</linearGradient>
<linearGradient id="paint1_linear_20005153_5922" x1="49.8477" y1="26.0739" x2="21.6102" y2="26.0739" gradientUnits="userSpaceOnUse">
<stop stop-color="#FFE000"/>
<stop offset="0.4087" stop-color="#FFBD00"/>
<stop offset="0.7754" stop-color="#FFA500"/>
<stop offset="1" stop-color="#FF9C00"/>
</linearGradient>
<linearGradient id="paint2_linear_20005153_5922" x1="39.3359" y1="23.4594" x2="13.4129" y2="-3.09167" gradientUnits="userSpaceOnUse">
<stop stop-color="#FF3A44"/>
<stop offset="1" stop-color="#C31162"/>
</linearGradient>
<linearGradient id="paint3_linear_20005153_5922" x1="18.8789" y1="48.6626" x2="30.4546" y2="36.8064" gradientUnits="userSpaceOnUse">
<stop stop-color="#32A071"/>
<stop offset="0.0685" stop-color="#2DA771"/>
<stop offset="0.4762" stop-color="#15CF74"/>
<stop offset="0.8009" stop-color="#06E775"/>
<stop offset="1" stop-color="#00F076"/>
</linearGradient>
</defs>
</svg>
