<svg width="526" height="378" viewBox="0 0 526 378" fill="none" xmlns="http://www.w3.org/2000/svg">
<path d="M147.474 334.392C155.465 332.683 177.332 327.48 172.501 312.674C167.198 296.414 147.946 296.887 138.392 299.47C128.875 302.053 112.165 313.62 117.251 326.534C122.737 340.431 139.882 335.993 147.474 334.392Z" fill="#0B0F19"/>
<path d="M133.816 336.867C126.987 336.867 119.939 334.794 116.743 326.682C115.218 322.825 115.472 318.824 117.469 314.786C121.356 307.075 131.055 300.853 138.248 298.889C147.874 296.307 167.562 295.797 173.01 312.458C174.173 316.06 173.918 319.37 172.21 322.317C167.416 330.683 152.486 333.848 147.582 334.903L146.492 335.122C143.26 335.849 138.574 336.867 133.814 336.867H133.816ZM148.927 298.635C145.003 298.635 141.335 299.217 138.538 299.98C132.581 301.581 122.411 307.401 118.451 315.296C116.562 319.043 116.343 322.716 117.76 326.281C122.845 339.16 138.101 335.849 146.275 334.066C146.64 334 147.003 333.928 147.365 333.848C160.188 331.119 168.252 327.082 171.266 321.807C172.791 319.151 173.046 316.132 171.957 312.822C168.36 301.727 158.008 298.635 148.927 298.635Z" fill="white"/>
<path d="M161.894 332.464C164.832 332.463 167.65 331.294 169.728 329.214C171.806 327.133 172.973 324.311 172.973 321.368C172.967 318.428 171.797 315.61 169.721 313.53C167.645 311.451 164.831 310.28 161.894 310.273C158.958 310.28 156.144 311.451 154.067 313.53C151.991 315.61 150.822 318.428 150.815 321.368C150.815 324.311 151.983 327.133 154.06 329.214C156.138 331.294 158.956 332.463 161.894 332.464Z" fill="#0B0F19"/>
<path d="M161.893 333.012C155.463 333.012 150.269 327.773 150.269 321.37C150.269 314.967 155.5 309.729 161.893 309.729C168.286 309.729 173.516 314.967 173.516 321.37C173.516 327.773 168.321 333.012 161.893 333.012ZM161.893 310.784C159.1 310.787 156.422 311.899 154.447 313.877C152.472 315.855 151.361 318.537 151.359 321.335C151.362 324.132 152.472 326.813 154.447 328.791C156.422 330.769 159.1 331.881 161.893 331.884C164.686 331.881 167.364 330.769 169.338 328.791C171.313 326.813 172.424 324.132 172.427 321.335C172.424 318.537 171.314 315.855 169.339 313.877C167.364 311.899 164.686 310.787 161.893 310.784Z" fill="white"/>
<path d="M152.341 315.698C152.341 315.698 150.853 307.659 152.341 307.113C153.83 306.567 157.935 310.969 157.935 310.969C157.935 310.969 156.01 311.66 154.811 312.788C153.613 313.952 152.341 315.698 152.341 315.698Z" fill="#0B0F19"/>
<path d="M152.341 316.243H152.233C152.014 316.206 151.869 316.025 151.834 315.807C151.834 315.733 151.47 313.733 151.253 311.66C150.889 307.621 151.507 306.822 152.161 306.603C153.868 305.985 157.319 309.513 158.336 310.604C158.444 310.75 158.517 310.932 158.481 311.114C158.444 311.296 158.299 311.441 158.117 311.513C158.081 311.513 156.265 312.168 155.175 313.223C154.302 314.104 153.5 315.052 152.777 316.061C152.721 316.119 152.653 316.165 152.578 316.197C152.503 316.228 152.423 316.244 152.341 316.243ZM152.523 307.621C152.523 307.621 151.978 308.058 152.341 311.732L152.668 314.388L154.412 312.424C155.212 311.66 156.265 311.114 156.955 310.786C155.248 309.004 153.141 307.367 152.523 307.621ZM172.865 320.204C172.793 320.204 172.719 320.168 172.611 320.132C172.466 320.058 172.357 319.913 172.32 319.731C172.32 319.695 171.812 317.148 170.977 315.948L169.342 313.801C169.196 313.656 169.16 313.438 169.233 313.256C169.306 313.074 169.487 312.929 169.669 312.892C170.431 312.783 177.152 311.874 178.967 313.256C179.117 313.361 179.242 313.496 179.336 313.653C179.43 313.809 179.49 313.984 179.513 314.165C179.803 316.493 174.209 319.513 173.12 320.058C173.046 320.204 172.938 320.204 172.866 320.204H172.865ZM170.794 313.911L171.884 315.365C172.538 316.348 173.01 317.912 173.227 318.821C175.588 317.513 178.531 315.402 178.422 314.347C178.422 314.311 178.422 314.274 178.277 314.165C177.332 313.475 173.554 313.62 170.794 313.911Z" fill="white"/>
<path d="M122.191 309.367C122.191 309.367 112.056 318.825 114.636 330.175C117.396 342.253 139.772 350.328 149.399 338.25C157.099 328.574 144.132 323.19 140.246 329.302C134.76 337.887 111.186 338.541 122.192 309.367H122.191Z" fill="#2B2D49"/>
<path d="M136.032 344.763C134.288 344.763 132.472 344.544 130.62 344.145C122.338 342.253 115.545 336.578 114.092 330.32C113.002 325.555 113.983 320.353 116.962 315.297C119.178 311.477 121.72 309.113 121.793 309.04C121.975 308.858 122.266 308.858 122.484 309.003C122.702 309.149 122.774 309.404 122.702 309.658C118.235 321.481 119.069 329.994 124.99 332.976C129.676 335.341 137.014 333.414 139.775 329.12C141.046 327.156 143.298 326.102 145.877 326.283C148.566 326.501 150.927 328.066 151.872 330.248C152.925 332.685 152.199 335.668 149.837 338.651C146.64 342.617 141.7 344.763 136.034 344.763H136.032ZM120.775 311.732C118.052 315.043 113.329 322.136 115.182 330.03C116.525 335.887 122.992 341.234 130.874 343.053C138.283 344.726 145.04 342.798 148.964 337.888C151.652 334.505 151.47 332.031 150.853 330.576C150.053 328.757 148.056 327.447 145.768 327.265C143.625 327.083 141.699 327.957 140.683 329.593C137.595 334.395 129.748 336.469 124.518 333.85C121.576 332.358 119.687 329.63 119.033 325.883C118.342 322.099 118.924 317.334 120.777 311.732H120.775ZM143.843 322.571C143.731 322.569 143.623 322.534 143.532 322.469C143.441 322.404 143.372 322.312 143.334 322.207C143.308 322.14 143.296 322.069 143.299 321.997C143.301 321.926 143.319 321.856 143.349 321.791C143.38 321.726 143.423 321.669 143.477 321.621C143.531 321.574 143.593 321.538 143.661 321.516C147.912 319.952 154.632 321.007 154.922 321.043C154.993 321.052 155.061 321.076 155.122 321.113C155.182 321.15 155.235 321.198 155.276 321.257C155.317 321.315 155.345 321.381 155.36 321.451C155.374 321.52 155.373 321.592 155.358 321.662C155.321 321.953 155.031 322.17 154.741 322.098C154.667 322.098 148.02 321.043 144.025 322.498C143.953 322.571 143.916 322.571 143.843 322.571ZM175.226 330.724C175.064 330.718 174.909 330.653 174.79 330.542C173.991 329.559 169.705 327.085 168.107 326.212C167.853 326.066 167.743 325.74 167.888 325.485C168.033 325.229 168.36 325.122 168.614 325.267C169.232 325.593 174.535 328.541 175.625 329.85C175.807 330.069 175.77 330.432 175.552 330.614C175.48 330.687 175.37 330.724 175.225 330.724H175.226ZM144.713 325.957C144.495 325.957 144.313 325.849 144.204 325.63C144.059 325.376 144.204 325.048 144.458 324.903C148.635 322.902 154.556 323.011 154.81 323.011C154.953 323.015 155.089 323.074 155.191 323.176C155.292 323.277 155.35 323.414 155.354 323.557C155.354 323.848 155.101 324.066 154.81 324.102C154.737 324.102 148.853 323.994 144.93 325.885C144.857 325.921 144.785 325.957 144.712 325.957H144.713ZM173.809 336.356C173.591 336.356 173.374 336.211 173.3 335.957C172.356 332.755 166.944 328.389 166.87 328.317C166.652 328.135 166.617 327.771 166.798 327.554C166.98 327.336 167.344 327.298 167.561 327.48C167.778 327.662 173.3 332.136 174.353 335.629C174.391 335.769 174.374 335.918 174.307 336.046C174.239 336.174 174.126 336.272 173.99 336.32C173.918 336.356 173.845 336.356 173.808 336.356H173.809Z" fill="white"/>
<path d="M175.614 206.857C175.471 206.853 175.334 206.794 175.233 206.692C175.131 206.591 175.073 206.454 175.069 206.311C175.073 206.167 175.132 206.031 175.233 205.93C175.335 205.828 175.471 205.769 175.614 205.766L362.067 203.946C362.211 203.95 362.347 204.009 362.449 204.11C362.55 204.212 362.609 204.348 362.613 204.492C362.609 204.636 362.55 204.772 362.449 204.874C362.347 204.976 362.211 205.034 362.067 205.038L175.614 206.857Z" fill="white" fill-opacity="0.55"/>
<path d="M307.8 307.04L350.19 306.531L346.775 319.336L307.836 319.445V307.04H307.8Z" fill="#0B0F19"/>
<path d="M307.799 319.993C307.653 319.993 307.508 319.919 307.4 319.847C307.29 319.737 307.254 319.592 307.254 319.446V307.042C307.258 306.899 307.317 306.762 307.418 306.661C307.519 306.559 307.655 306.5 307.799 306.496L350.19 305.987C350.371 305.987 350.517 306.059 350.626 306.205C350.734 306.35 350.771 306.532 350.734 306.678L347.32 319.483C347.248 319.737 347.029 319.883 346.811 319.883L307.799 319.993ZM308.344 307.587V318.901L346.339 318.791L349.463 307.079L308.344 307.587Z" fill="white"/>
<path d="M207.106 149.925C207.106 149.925 194.137 168.113 197.081 182.81C200.024 197.507 216.877 207.219 242.922 206.31C240.706 228.355 244.702 307.659 244.702 307.659L307.834 307.04L344.485 306.531V199.871L293.34 160.365C293.34 160.365 268.93 150.58 207.106 149.925Z" fill="#202034"/>
<path d="M244.666 308.205C244.375 308.205 244.121 307.986 244.121 307.695C244.085 306.895 240.235 229.52 242.304 206.893C229.918 207.257 219.129 205.183 211.066 200.927C203.075 196.671 198.025 190.451 196.536 182.957C194.974 175.244 197.845 166.587 200.495 160.694C203.365 154.327 206.635 149.707 206.67 149.671C206.78 149.525 206.962 149.453 207.107 149.453C267.442 150.072 292.469 159.493 293.522 159.894C293.559 159.929 293.632 159.929 293.667 159.966L344.813 199.472C344.959 199.581 345.031 199.727 345.031 199.909V306.567C345.027 306.711 344.968 306.847 344.867 306.949C344.766 307.05 344.629 307.109 344.486 307.114L307.834 307.623L244.666 308.205ZM242.886 205.765C243.032 205.765 243.177 205.838 243.286 205.947C243.394 206.056 243.431 206.201 243.431 206.383C241.36 227.192 244.848 300.201 245.175 307.114L307.762 306.495L343.904 305.986V200.126L293.05 160.839C291.379 160.221 266.497 151.126 207.397 150.471C205.907 152.617 194.938 169.278 197.626 182.666C199.042 189.868 203.873 195.798 211.611 199.909C219.602 204.201 230.427 206.201 242.886 205.765Z" fill="white"/>
<path d="M307.799 307.582C307.507 307.582 307.253 307.364 307.253 307.036L304.675 199.213L272.2 169.638C271.983 169.42 271.946 169.092 272.164 168.875C272.383 168.657 272.709 168.619 272.927 168.838L305.546 198.595C305.655 198.704 305.728 198.849 305.728 198.994L308.306 307.073C308.343 307.327 308.125 307.582 307.799 307.582Z" fill="white"/>
<path d="M239.618 307.697L316.371 307.042L313.429 319.41L243.541 319.665L239.618 307.697Z" fill="#0B0F19"/>
<path d="M243.505 320.208C243.393 320.207 243.285 320.171 243.194 320.106C243.103 320.041 243.034 319.95 242.996 319.844L239.074 307.876C239.038 307.694 239.038 307.513 239.146 307.403C239.255 307.293 239.401 307.186 239.582 307.186L316.336 306.531C316.518 306.531 316.663 306.603 316.772 306.748C316.88 306.894 316.917 307.04 316.882 307.221L313.939 319.59C313.866 319.844 313.648 320.026 313.394 320.026L243.505 320.208ZM240.346 308.24L243.905 319.117L312.995 318.863L315.682 307.585L240.346 308.24Z" fill="white"/>
<path d="M340.782 319.444V327.92L363.122 343.781L307.8 344.254V319.444H340.782Z" fill="#0B0F19"/>
<path d="M307.799 344.801C307.653 344.801 307.508 344.728 307.4 344.656C307.29 344.546 307.254 344.4 307.254 344.255V319.445C307.259 319.302 307.317 319.166 307.419 319.064C307.52 318.963 307.656 318.904 307.799 318.9H340.781C340.925 318.904 341.061 318.963 341.162 319.064C341.264 319.165 341.323 319.302 341.327 319.445V327.667L363.412 343.346C363.593 343.491 363.703 343.746 363.629 343.964C363.556 344.181 363.339 344.328 363.122 344.365L307.799 344.801ZM308.344 319.991V343.71L361.413 343.237L340.454 328.358C340.309 328.249 340.237 328.104 340.237 327.921V319.955H308.344V319.991Z" fill="white"/>
<path d="M245.104 319.66L307.8 319.406V328.718L329.994 343.96L245.648 345.016L245.104 319.66Z" fill="#0B0F19"/>
<path d="M245.648 345.562C245.505 345.558 245.368 345.5 245.267 345.398C245.166 345.297 245.107 345.161 245.102 345.017L244.558 319.698C244.558 319.552 244.593 319.407 244.703 319.298C244.813 319.189 244.957 319.116 245.102 319.116L307.799 318.862C307.944 318.862 308.089 318.934 308.199 319.007C308.307 319.116 308.344 319.261 308.344 319.407V328.428L330.284 343.49C330.465 343.635 330.574 343.853 330.501 344.108C330.429 344.325 330.211 344.508 329.992 344.508L245.648 345.562ZM245.648 320.207L246.192 344.435L328.25 343.453L307.471 329.192C307.326 329.083 307.218 328.938 307.218 328.756V319.99L245.648 320.207Z" fill="white"/>
<path d="M256.506 137.116L258.105 118.928L256.833 99.83L258.105 118.928L272.053 108.487C272.053 108.487 253.891 83.1324 245.827 81.859C241.25 85.1697 237.582 79.8218 237.582 79.8218C237.582 79.8218 212.918 80.6223 206.306 104.122C220.618 108.706 230.971 111.507 230.971 111.507L233.913 100.23L227.484 131.26L256.506 137.116Z" fill="#0B0F19"/>
<path d="M256.508 137.661H256.398L227.412 131.767C227.265 131.73 227.156 131.658 227.048 131.548C226.939 131.438 226.939 131.294 226.975 131.148L230.935 112.05H230.861C230.753 112.013 220.291 109.212 206.161 104.665C205.871 104.593 205.725 104.265 205.797 104.01C209.248 91.6774 217.712 85.6024 224.214 82.6926C231.225 79.564 237.328 79.3098 237.582 79.3098C237.672 79.3073 237.761 79.3258 237.843 79.3638C237.925 79.4017 237.997 79.4581 238.054 79.5285C238.054 79.5652 239.725 81.93 242.086 82.3296C243.249 82.5117 244.411 82.2208 245.537 81.4204C245.645 81.347 245.791 81.3116 245.936 81.3116C254.146 82.6217 271.763 107.104 272.527 108.159C272.707 108.413 272.635 108.74 272.417 108.922L258.687 119.217L257.088 137.188C257.088 137.334 256.98 137.479 256.87 137.588C256.725 137.625 256.616 137.661 256.508 137.661ZM228.138 130.786L255.999 136.46L257.561 118.927L256.289 99.8643V99.8276C256.289 99.5367 256.508 99.318 256.798 99.2813C257.088 99.2447 257.342 99.5001 257.379 99.7909L258.577 117.871L271.292 108.34C268.894 105.029 253.238 83.9305 245.973 82.4029C244.666 83.2755 243.285 83.603 241.904 83.3855C239.579 82.9846 237.872 81.0574 237.328 80.3657C236.056 80.4378 230.608 80.9474 224.615 83.6397C215.678 87.6775 209.757 94.4076 206.997 103.72C219.056 107.576 228.355 110.159 230.608 110.778L233.405 100.01C233.478 99.7188 233.768 99.5367 234.059 99.6101C234.349 99.6834 234.531 99.9743 234.458 100.265L228.138 130.786Z" fill="white"/>
<path d="M206.309 104.088C206.309 104.088 197.554 143.886 199.261 146.832C200.969 149.779 248.663 159.455 261.123 159.891C273.582 160.328 269.913 141.812 266.099 139.666C262.321 137.52 227.486 131.226 227.486 131.226L230.972 111.473L206.309 104.088Z" fill="#0B0F19"/>
<path d="M261.559 160.437H261.086C254.366 160.183 238.637 157.455 226.033 154.835C218.259 153.236 200.024 149.233 198.789 147.124C198.462 146.578 197.627 145.123 201.586 124.278L205.764 104.015C205.8 103.87 205.873 103.725 206.018 103.651C206.163 103.578 206.309 103.543 206.454 103.615L231.154 111C231.409 111.072 231.591 111.327 231.518 111.618L228.14 130.826C232.716 131.663 262.793 137.193 266.39 139.229C269.113 140.758 271.293 148.797 269.768 154.29C268.933 157.091 266.862 160.437 261.559 160.437ZM206.708 104.781C203.33 120.131 198.572 144.54 199.734 146.542C200.351 147.487 208.96 150.142 226.36 153.781C238.892 156.364 254.511 159.092 261.123 159.346C265.082 159.491 267.625 157.673 268.678 153.963C269.369 151.561 269.332 148.469 268.569 145.451C267.915 142.831 266.825 140.721 265.809 140.139C262.865 138.465 239.365 133.919 227.377 131.772C227.086 131.735 226.869 131.444 226.941 131.153L230.355 111.909L206.708 104.779V104.781Z" fill="white"/>
<path d="M258.65 118.639L269.693 110.236L278.266 124.788L269.73 139.849L256.544 136.975L258.65 118.641V118.639Z" fill="#0B0F19"/>
<path d="M269.729 140.39H269.62L256.434 137.517C256.144 137.444 255.962 137.19 255.998 136.935L258.142 118.6C258.142 118.455 258.25 118.309 258.359 118.236L269.401 109.833C269.511 109.724 269.692 109.688 269.838 109.724C269.985 109.761 270.129 109.833 270.201 109.978L278.774 124.53C278.882 124.712 278.882 124.894 278.774 125.076L270.201 140.136C270.092 140.282 269.91 140.39 269.729 140.39ZM257.124 136.571L269.438 139.227L277.647 124.785L269.547 111.034L259.158 118.928L257.124 136.571Z" fill="white"/>
<path d="M259.124 81.9335C267.152 79.2413 263.955 63.9993 259.669 57.8875C252.078 47.0475 233.37 48.9027 228.502 63.563C227.449 66.7636 220.911 68.1825 223.454 73.2762C225.233 76.8411 232.353 74.9859 232.353 74.9859C232.353 74.9859 254.329 83.5345 259.124 81.9335Z" fill="#0B0F19"/>
<path d="M257.562 82.6611C250.878 82.6611 234.278 76.3318 232.316 75.5668C231.154 75.8576 224.761 77.1677 222.981 73.5295C221.165 69.8559 223.598 67.8187 225.561 66.1444C226.65 65.2352 227.667 64.3614 227.994 63.38C230.282 56.4324 235.912 51.6295 243.032 50.5749C249.862 49.5569 256.4 52.2479 260.105 57.5225C263.446 62.252 265.808 71.6011 263.919 77.384C263.084 79.9309 261.522 81.6406 259.269 82.3678C258.834 82.5865 258.253 82.6586 257.562 82.6586V82.6611ZM232.353 74.4754C232.426 74.4754 232.498 74.4755 232.535 74.5121C238.02 76.6215 252.041 81.6052 257.49 81.6052C258.071 81.6052 258.579 81.5331 258.942 81.4231C260.831 80.768 262.175 79.3492 262.902 77.1311C264.646 71.7832 262.393 62.725 259.233 58.2142C255.746 53.2671 249.607 50.757 243.214 51.7029C236.493 52.6854 231.226 57.1962 229.047 63.7442C228.611 65.0543 227.45 66.0356 226.287 67.0182C224.289 68.7279 222.545 70.1834 223.962 73.0566C224.761 74.6575 226.904 74.9851 228.575 74.9484C230.5 74.9484 232.208 74.4754 232.208 74.4754H232.353Z" fill="white"/>
<path d="M237.584 79.8259L239.509 74.3326C239.509 74.3326 237.511 71.5682 237.584 70.0039C237.657 68.4396 234.569 69.531 235.368 66.3303C236.204 63.1296 240.236 66.6945 242.234 67.5304C244.231 68.3663 247.973 66.4024 249.934 66.257C251.279 66.1482 252.622 67.4571 252.986 68.2942C253.748 70.0406 252.695 72.5141 250.661 73.6775C248.627 74.8776 245.611 75.0597 245.611 75.0597L245.321 82.1895C245.321 82.1895 244.885 83.6816 240.962 82.5903C237.039 81.4623 237.584 79.8259 237.584 79.8259Z" fill="white"/>
<path d="M243.433 83.5001C242.779 83.5001 241.908 83.3913 240.818 83.1004C238.929 82.5908 237.729 81.827 237.222 80.9178C236.858 80.2627 237.003 79.7531 237.04 79.6443L238.856 74.4064C238.348 73.6426 236.895 71.4599 237.003 69.9678C237.003 69.7857 236.967 69.7136 236.349 69.4582C235.551 69.1306 234.206 68.5856 234.824 66.1842C235.042 65.3837 235.441 64.8386 236.022 64.6199C237.33 64.0736 239.146 65.1661 240.745 66.1108L242.415 67.0201C243.542 67.4564 245.431 66.8746 247.101 66.365C248.119 66.0375 249.099 65.7466 249.863 65.71C251.46 65.6012 252.986 67.0201 253.458 68.0747C254.331 70.0386 253.168 72.8397 250.916 74.1498C249.281 75.0957 247.101 75.4599 246.122 75.5686L245.83 82.1888C245.83 82.2254 245.83 82.2621 245.795 82.2975C245.83 82.443 245.467 83.4976 243.433 83.4976V83.5001ZM238.093 79.9719C238.093 80.0806 237.984 81.172 241.108 82.0458C243.65 82.7375 244.595 82.3 244.777 82.0091L245.067 75.0248C245.067 74.734 245.286 74.5152 245.576 74.5152C245.613 74.5152 248.482 74.3331 250.371 73.2051C252.151 72.1504 253.132 69.9678 252.478 68.5122C252.151 67.7851 250.988 66.7292 249.972 66.8025C249.318 66.8392 248.41 67.1301 247.465 67.4209C245.613 68.0026 243.505 68.6577 242.016 68.0393C241.508 67.8205 240.853 67.4576 240.201 67.0567C238.966 66.3296 237.258 65.3103 236.422 65.6379C236.314 65.6745 236.022 65.7833 235.842 66.475C235.478 67.9305 235.987 68.1481 236.75 68.4756C237.294 68.6943 238.13 69.0573 238.056 70.0399C237.983 71.0224 239.146 72.9864 239.874 74.0056C239.982 74.151 240.019 74.3331 239.946 74.5152L238.093 79.9719Z" fill="#0B0F19"/>
<path d="M448.666 161.276H83.4935C83.3503 161.272 83.2142 161.213 83.113 161.112C83.0118 161.01 82.9532 160.874 82.9492 160.73C82.9535 160.587 83.0122 160.451 83.1134 160.349C83.2145 160.248 83.3505 160.189 83.4935 160.185H448.666C448.809 160.189 448.945 160.248 449.046 160.349C449.147 160.451 449.206 160.587 449.21 160.73C449.21 161.022 448.991 161.276 448.666 161.276Z" fill="white"/>
<path d="M175.068 160.562L123.947 357.239L125.001 357.514L176.123 160.837L175.068 160.562Z" fill="white" fill-opacity="0.55"/>
<path d="M130.478 160.537L129.442 160.876L196.529 365.819L197.565 365.479L130.478 160.537ZM358.697 160.546L357.663 160.891L425.844 365.82L426.878 365.475L358.697 160.546Z" fill="white" fill-opacity="0.55"/>
<path d="M404.407 160.542L353.292 354.489L354.346 354.768L405.46 160.821L404.407 160.542Z" fill="white" fill-opacity="0.55"/>
<path d="M104.052 136.899C103.834 136.899 103.616 136.754 103.543 136.572C103.47 136.39 96.6778 119.511 87.3423 115.255C87.0519 115.146 86.9433 114.818 87.0885 114.527C87.1971 114.237 87.5242 114.128 87.8146 114.273C91.9198 116.165 95.9871 120.422 99.9104 126.933C102.816 131.771 104.56 136.1 104.596 136.173C104.647 136.304 104.645 136.449 104.591 136.577C104.537 136.706 104.435 136.809 104.306 136.864C104.197 136.9 104.124 136.9 104.052 136.9V136.899Z" fill="white"/>
<path d="M87.5645 114.743C87.5645 114.743 80.1902 103.03 77.2846 106.414C73.2527 111.07 87.5645 114.743 87.5645 114.743Z" fill="#565973"/>
<path d="M87.5646 115.291H87.4194C86.4029 115 77.2847 112.562 76.1229 108.888C75.8325 107.906 76.0497 106.96 76.849 106.087C77.3579 105.505 78.012 105.215 78.7747 105.287C80.3367 105.395 82.3709 106.996 84.8409 110.052C86.6213 112.271 87.9649 114.38 88.0369 114.49C88.0935 114.585 88.1203 114.695 88.1138 114.805C88.1073 114.915 88.0677 115.021 88.0003 115.109C87.8917 115.217 87.7464 115.291 87.5646 115.291ZM78.5562 106.341C78.1926 106.341 77.9022 106.487 77.6483 106.778C77.1395 107.396 76.9576 107.978 77.1395 108.561C77.8302 110.815 83.097 112.853 86.2564 113.835C84.3674 111.071 80.8077 106.523 78.6282 106.378C78.6282 106.341 78.5916 106.341 78.555 106.341H78.5562Z" fill="white"/>
<path d="M97.0783 123.618C94.4632 117.943 86.835 128.747 86.835 128.747C86.835 128.747 98.5317 126.71 97.0783 123.618Z" fill="#565973"/>
<path d="M87.3667 129.295C87.2741 129.291 87.1836 129.265 87.1019 129.221C87.0202 129.177 86.9493 129.116 86.8945 129.041C86.8408 128.947 86.8125 128.84 86.8125 128.732C86.8125 128.623 86.8408 128.517 86.8945 128.422C87.44 127.659 92.1614 121.111 95.6856 121.438C96.7388 121.547 97.5381 122.202 98.0836 123.402C98.3374 123.912 98.302 124.493 98.0469 125.003C96.6668 127.622 88.3845 129.15 87.44 129.295H87.3667ZM95.4306 122.493C93.3963 122.493 90.3455 125.767 88.6383 127.913C91.9808 127.221 96.3397 125.876 97.0658 124.457C97.1744 124.238 97.1744 124.057 97.1024 123.838C96.7022 123.001 96.2311 122.565 95.577 122.528C95.5404 122.492 95.5038 122.492 95.4318 122.492L95.4306 122.493Z" fill="white"/>
<path d="M109.358 93.2847C110.738 110.637 114.588 136.646 114.588 136.646L109.358 93.2847Z" fill="#0B0F19"/>
<path d="M114.551 137.23C114.297 137.23 114.042 137.048 114.005 136.757C113.969 136.503 110.155 110.529 108.775 93.359C108.738 93.0681 108.993 92.8127 109.284 92.7772C109.574 92.7418 109.829 92.996 109.865 93.2869C111.208 110.421 115.06 136.359 115.095 136.613C115.106 136.685 115.103 136.758 115.085 136.829C115.067 136.899 115.035 136.965 114.991 137.023C114.947 137.081 114.892 137.129 114.828 137.165C114.765 137.201 114.695 137.223 114.623 137.231H114.551V137.23Z" fill="white"/>
<path d="M108.486 76.8397C110.665 76.621 117.167 95.9741 109.14 95.0649C102.02 94.2278 108.486 76.8397 108.486 76.8397Z" fill="#565973"/>
<path d="M109.684 95.6115C109.502 95.6115 109.284 95.6115 109.103 95.5748C107.832 95.4294 106.852 94.811 106.233 93.7563C103.399 89.1368 107.832 77.1321 108.013 76.6225C108.085 76.4404 108.267 76.295 108.486 76.2583C109.067 76.185 109.649 76.658 110.302 77.7493C112.227 80.8779 115.096 90.2269 112.735 93.9739C112.009 95.0652 110.991 95.6115 109.684 95.6115ZM108.813 77.6051C108.449 78.6598 107.686 80.9879 107.106 83.6435C106.089 88.2276 106.089 91.537 107.142 93.2113C107.614 93.9751 108.305 94.4114 109.213 94.5214C110.957 94.7401 111.973 93.8663 112.374 91.9024C113.282 87.2096 110.194 79.0252 108.814 77.6063L108.813 77.6051ZM110.303 103.796C110.21 103.791 110.12 103.766 110.038 103.722C109.956 103.678 109.885 103.617 109.831 103.542C109.794 103.47 106.126 97.3933 100.241 96.9204C94.4655 96.4841 93.3392 96.847 93.3038 96.8837C93.05 97.0291 92.7229 96.9204 92.5777 96.6295C92.4325 96.3753 92.5777 96.0111 92.8315 95.9023C93.0134 95.7936 94.2483 95.3573 100.315 95.8302C106.744 96.3399 110.594 102.706 110.74 102.96C110.885 103.214 110.812 103.542 110.558 103.724C110.486 103.797 110.376 103.797 110.304 103.797L110.303 103.796Z" fill="white"/>
<path d="M92.8302 95.724C91.7038 88.3755 80.8064 97.1795 80.8064 97.1795C80.8064 97.1795 93.5929 100.744 92.8302 95.724Z" fill="#565973"/>
<path d="M88.652 98.96C87.6057 98.9558 86.5612 98.8708 85.528 98.7058C82.9494 98.3416 80.7334 97.7233 80.6247 97.7233C80.4429 97.6866 80.2611 97.5045 80.2257 97.3236C80.2077 97.2246 80.215 97.1227 80.2467 97.0272C80.2785 96.9317 80.3338 96.8458 80.4075 96.7774C80.698 96.5586 87.5269 91.1019 91.1963 92.5208C92.3593 92.9937 93.0854 94.0484 93.3392 95.6494C93.4844 96.5953 93.2306 97.3957 92.5765 97.9408C91.8504 98.5958 90.5056 98.96 88.6532 98.96H88.652ZM82.0049 96.9594C84.9471 97.6512 90.2872 98.5604 91.8846 97.1415C92.2483 96.814 92.3569 96.4144 92.2836 95.8315C92.1018 94.5947 91.6296 93.8675 90.8302 93.54C88.6142 92.6674 84.2918 95.2864 82.0037 96.9594H82.0049ZM111.246 112.237C111.158 112.23 111.071 112.205 110.992 112.165C110.738 112.019 110.629 111.692 110.738 111.438C110.848 111.183 113.934 105.144 121.563 100.924C127.302 97.7587 130.534 96.7774 130.644 96.7407C130.784 96.7029 130.933 96.7194 131.061 96.787C131.189 96.8545 131.287 96.9681 131.335 97.1049C131.373 97.2449 131.356 97.3939 131.289 97.5222C131.221 97.6505 131.108 97.7485 130.971 97.7966C130.935 97.7966 127.702 98.7792 122.108 101.871C114.77 105.946 111.756 111.875 111.72 111.911C111.684 112.007 111.62 112.09 111.535 112.149C111.451 112.208 111.35 112.239 111.247 112.238L111.246 112.237Z" fill="white"/>
<path d="M131.187 97.2882C128.789 88.5209 149.022 94.0142 149.022 94.0142C149.022 94.0142 132.894 103.545 131.187 97.2882Z" fill="#565973"/>
<path d="M134.603 99.9403C133.84 99.9403 133.149 99.8315 132.569 99.6128C131.587 99.2132 130.933 98.4848 130.643 97.4301C130.207 95.7571 130.461 94.4103 131.406 93.4644C133.004 91.8635 136.491 91.3905 141.794 92.0456C145.644 92.5185 149.095 93.4644 149.132 93.4644C149.35 93.5365 149.496 93.6819 149.532 93.9007C149.569 94.1194 149.459 94.337 149.278 94.447C148.879 94.7012 139.98 99.9403 134.603 99.9403ZM137.618 92.8472C135.257 92.8472 133.223 93.2114 132.206 94.2294C131.515 94.9212 131.37 95.8671 131.697 97.1393C131.879 97.831 132.315 98.3027 132.969 98.5948C134.676 99.2865 137.909 98.6314 142.341 96.7396C144.447 95.8304 146.373 94.8478 147.536 94.1928C144.993 93.5744 140.997 92.8472 137.619 92.8472H137.618ZM125.848 137.228C125.558 137.228 125.303 137.01 125.303 136.683C125.303 136.21 124.976 125.151 129.189 121.84C129.443 121.658 129.77 121.695 129.952 121.949C130.134 122.203 130.097 122.531 129.844 122.713C126.065 125.696 126.393 136.573 126.393 136.681C126.393 136.972 126.174 137.227 125.847 137.227L125.848 137.228Z" fill="white"/>
<path d="M143.573 111.984C143.573 111.984 124.14 115.913 129.188 122.279C132.566 126.572 143.573 111.984 143.573 111.984Z" fill="#565973"/>
<path d="M130.825 123.625C129.989 123.625 129.263 123.298 128.754 122.606C127.809 121.441 127.591 120.241 128.028 119.041C129.772 114.24 142.921 111.547 143.466 111.439C143.577 111.417 143.692 111.43 143.796 111.476C143.899 111.521 143.987 111.597 144.047 111.693C144.104 111.788 144.13 111.897 144.124 112.008C144.117 112.118 144.078 112.224 144.01 112.311C143.683 112.784 135.474 123.552 130.825 123.624V123.625ZM142.231 112.857C137.945 113.875 130.207 116.35 129.046 119.442C128.755 120.243 128.937 121.08 129.627 121.952C129.954 122.352 130.353 122.534 130.861 122.534C133.877 122.497 139.398 116.35 142.231 112.857Z" fill="white"/>
<path d="M121.016 117.112C125.557 114.966 126.501 128.207 126.501 128.207C126.501 128.207 116.585 119.222 121.016 117.112Z" fill="#565973"/>
<path d="M126.538 128.79C126.47 128.794 126.403 128.783 126.34 128.758C126.277 128.733 126.221 128.694 126.174 128.645C126.102 128.571 124.358 126.972 122.651 124.97C120.253 122.169 119.164 119.986 119.419 118.459C119.527 117.658 120.036 117.003 120.835 116.64C121.671 116.24 122.506 116.276 123.233 116.712C124.577 117.513 125.631 119.695 126.394 123.26C126.939 125.807 127.085 128.135 127.12 128.244C127.12 128.463 127.011 128.68 126.83 128.79C126.684 128.753 126.611 128.79 126.539 128.79H126.538ZM121.271 117.623C120.799 117.841 120.545 118.169 120.472 118.605C120.181 120.679 123.632 124.607 125.847 126.826C125.484 123.771 124.504 118.714 122.651 117.623C122.216 117.368 121.78 117.368 121.271 117.623Z" fill="white"/>
<path d="M131.99 136.354H99.1162V160.69H131.99V136.354Z" fill="#3E4265" fill-opacity="0.57"/>
<path d="M131.989 161.236H99.1148C98.9714 161.232 98.835 161.173 98.7335 161.071C98.6321 160.97 98.5733 160.833 98.5693 160.69V136.317C98.5733 136.174 98.6321 136.037 98.7335 135.935C98.835 135.834 98.9714 135.775 99.1148 135.771H131.989C132.132 135.775 132.269 135.834 132.37 135.935C132.472 136.037 132.53 136.174 132.534 136.317V160.69C132.534 161.017 132.281 161.236 131.989 161.236ZM99.6603 160.145H131.445V136.862H99.6603V160.145Z" fill="white"/>
<path d="M256.509 160.729L290.181 92.3389H380.847L351.025 160.729H256.509Z" fill="url(#paint0_linear_20005153_6356)"/>
<path d="M351.06 161.276H256.507C256.326 161.276 256.144 161.167 256.035 161.022C255.927 160.877 255.927 160.658 255.999 160.476L289.672 92.0858C289.781 91.9037 289.962 91.7949 290.144 91.7949H380.847C381.027 91.7949 381.209 91.9037 381.319 92.0491C381.369 92.1236 381.398 92.2098 381.404 92.2992C381.411 92.3886 381.393 92.4781 381.354 92.5587L351.532 160.949C351.46 161.167 351.278 161.276 351.06 161.276ZM257.379 160.185H350.696L380.047 92.8863H290.543L257.379 160.185Z" fill="#0B0F19"/>
<path d="M327.05 123.256C327.05 123.256 323.563 122.31 321.093 124.057C320.003 124.821 316.624 127.439 318.404 129.659C320.185 131.878 323.489 129.95 324.761 128.021C326.032 126.057 327.05 123.256 327.05 123.256Z" fill="white"/>
<path d="M320.439 131.154C319.458 131.154 318.623 130.754 317.969 129.954C317.726 129.665 317.549 129.327 317.449 128.963C317.348 128.599 317.328 128.217 317.388 127.844C317.642 126.026 319.639 124.352 320.766 123.551C323.417 121.696 327.014 122.642 327.196 122.679C327.341 122.715 327.449 122.824 327.523 122.97C327.588 123.106 327.6 123.261 327.558 123.406C327.523 123.515 326.505 126.316 325.198 128.281C324.289 129.663 322.401 131.082 320.584 131.155H320.439V131.154ZM324.834 123.551C323.781 123.551 322.473 123.733 321.383 124.497C320.729 124.933 318.659 126.534 318.441 128.062C318.368 128.535 318.514 128.935 318.805 129.335C319.003 129.596 319.263 129.802 319.561 129.935C319.859 130.069 320.186 130.125 320.512 130.099C321.964 130.026 323.526 128.826 324.253 127.698C325.125 126.352 325.887 124.569 326.251 123.66C325.924 123.588 325.415 123.551 324.834 123.551Z" fill="#0B0F19"/>
<path d="M421.713 154.325H421.639C421.349 154.289 421.131 153.999 421.167 153.706L433.082 61.4173L379.14 31.9879C378.886 31.8425 378.777 31.5149 378.922 31.2607C379.068 31.0066 379.395 30.8966 379.648 31.042L433.954 60.6534C434.135 60.7622 434.244 60.981 434.244 61.1997L422.257 153.854C422.22 154.145 421.967 154.326 421.713 154.326V154.325Z" fill="white" fill-opacity="0.55"/>
<path d="M379.395 31.5171L353.132 42.6492L379.902 59.3101L379.395 31.5171Z" fill="#3E4265" fill-opacity="0.55"/>
<path d="M379.902 59.8542C379.794 59.8542 379.722 59.8175 379.612 59.7821L352.84 43.1212C352.66 43.0124 352.587 42.8303 352.587 42.6116C352.587 42.3928 352.732 42.2474 352.914 42.1386L379.176 31.0077C379.358 30.9344 379.54 30.9711 379.685 31.0444C379.83 31.1532 379.939 31.2986 379.939 31.4807L380.448 59.2737C380.448 59.4558 380.339 59.6733 380.157 59.7466C380.125 59.7822 380.086 59.8104 380.042 59.8292C379.998 59.848 379.95 59.8569 379.902 59.8554V59.8542ZM354.331 42.757L379.358 58.3265L378.886 32.3533L354.331 42.757Z" fill="white"/>
<path d="M366.175 59.0134C370.025 59.0134 373.112 55.8849 373.112 52.0658C373.112 48.2101 369.988 45.1182 366.175 45.1182C362.323 45.1182 359.236 48.2467 359.236 52.0658C359.236 55.8849 362.323 59.0134 366.175 59.0134Z" fill="#0B0F19"/>
<path d="M366.174 59.5596C362.032 59.5596 358.691 56.2123 358.691 52.0657C358.691 47.9191 362.032 44.5718 366.174 44.5718C370.315 44.5718 373.657 47.9191 373.657 52.0657C373.657 56.1768 370.314 59.5596 366.174 59.5596ZM366.174 45.6264C364.479 45.63 362.855 46.3057 361.657 47.5056C360.459 48.7056 359.784 50.332 359.78 52.029C359.784 53.726 360.459 55.3525 361.657 56.5524C362.855 57.7524 364.479 58.428 366.174 58.4316C367.868 58.428 369.492 57.7524 370.69 56.5524C371.889 55.3525 372.563 53.726 372.567 52.029C372.563 50.332 371.889 48.7056 370.69 47.5056C369.492 46.3057 367.868 45.63 366.174 45.6264Z" fill="white"/>
<path d="M439.076 152.833H403.841V160.326H439.112V152.833H439.076Z" fill="#3E4265" fill-opacity="0.57"/>
<path d="M439.077 160.907H403.841C403.698 160.903 403.562 160.844 403.461 160.743C403.36 160.641 403.301 160.505 403.297 160.362V152.868C403.301 152.725 403.359 152.588 403.461 152.487C403.562 152.385 403.698 152.326 403.841 152.322H439.113C439.256 152.326 439.392 152.385 439.494 152.487C439.595 152.588 439.653 152.725 439.657 152.868V160.362C439.621 160.653 439.404 160.907 439.077 160.907ZM404.387 159.816H438.568V153.413H404.387V159.816Z" fill="white"/>
<path d="M180.771 40.5731C178.281 40.5715 175.836 39.9058 173.688 38.6446C170.42 36.7471 168.035 33.6305 167.054 29.9764C166.074 26.3224 166.579 22.4284 168.458 19.146C170.346 15.8366 173.435 13.4718 177.103 12.4892C180.771 11.5067 184.622 12.0163 187.927 13.9081C191.232 15.7999 193.594 18.8918 194.574 22.5655C195.554 26.2241 195.045 30.1227 193.157 33.4055C191.268 36.7149 188.181 39.0809 184.513 40.0622C183.296 40.4076 182.036 40.5792 180.771 40.5719V40.5731ZM180.808 13.1443C179.656 13.1459 178.509 13.2925 177.393 13.5806C174.015 14.4898 171.145 16.6725 169.401 19.729C165.768 26.0228 167.948 34.0984 174.233 37.7354C175.73 38.601 177.383 39.1623 179.097 39.3871C180.811 39.6119 182.553 39.4958 184.222 39.0455C187.6 38.1362 190.47 35.9535 192.214 32.8971C193.078 31.3977 193.639 29.7422 193.863 28.0255C194.088 26.3089 193.972 24.5647 193.522 22.893C192.614 19.5102 190.435 16.6358 187.383 14.8894C185.381 13.7427 183.114 13.141 180.808 13.1443ZM181.68 32.8983C181.613 32.9021 181.545 32.891 181.482 32.8659C181.419 32.8408 181.363 32.8022 181.317 32.7529L175.759 27.5504C175.658 27.4512 175.598 27.3173 175.591 27.1757C175.584 27.034 175.631 26.895 175.723 26.7866C175.822 26.6853 175.955 26.6252 176.097 26.6184C176.238 26.6116 176.377 26.6586 176.485 26.7499L182.079 31.9524C182.18 32.0516 182.24 32.1855 182.247 32.3271C182.254 32.4688 182.207 32.6077 182.116 32.7162C182.06 32.7758 181.993 32.8228 181.918 32.8542C181.842 32.8856 181.762 32.9006 181.68 32.8983ZM186.585 31.2595C186.331 31.2595 186.112 31.0774 186.039 30.8232L184.841 24.0564C184.804 23.7656 184.986 23.4747 185.276 23.438C185.346 23.4229 185.418 23.4224 185.487 23.4365C185.557 23.4506 185.623 23.4791 185.681 23.5201C185.739 23.5612 185.788 23.6138 185.825 23.6748C185.861 23.7358 185.885 23.8037 185.894 23.8743L187.092 30.6411C187.129 30.9319 186.947 31.2228 186.657 31.2595H186.583H186.585ZM174.816 24.4621C174.525 24.4621 174.27 24.2434 174.27 23.9525C174.27 23.8438 174.198 21.0427 175.941 20.1689C177.139 19.5872 178.266 20.4231 178.956 21.2969C179.647 20.2789 180.954 18.5692 182.299 18.3871C183.861 18.1683 185.169 20.6064 185.423 21.1148C185.568 21.369 185.46 21.6965 185.169 21.842C184.915 21.9874 184.588 21.8786 184.443 21.5878C183.971 20.6419 183.026 19.4051 182.445 19.4784C181.464 19.6239 180.084 21.4423 179.43 22.5703C179.321 22.7524 179.139 22.8245 178.958 22.8245C178.865 22.8201 178.775 22.795 178.693 22.751C178.611 22.707 178.54 22.6453 178.485 22.5703C178.485 22.5337 177.359 20.6785 176.379 21.1515C175.253 21.6965 175.326 23.8792 175.326 23.9159C175.363 24.1701 175.144 24.4255 174.817 24.4609L174.816 24.4621Z" fill="white" fill-opacity="0.55"/>
<path d="M180.081 44.3563C179.791 44.3563 179.536 44.3196 179.355 44.2475C177.503 43.4104 177.648 40.1364 177.648 39.7367C177.648 39.5913 177.72 39.4459 177.867 39.3371C177.975 39.2283 178.12 39.1917 178.302 39.2283C178.339 39.2283 183.133 39.92 185.712 38.5366C188.4 37.0457 191.742 34.6809 191.778 34.6809C191.997 34.5355 192.324 34.5721 192.504 34.7542C192.758 35.0451 194.938 37.6641 193.703 39.3383C192.685 40.7205 183.204 44.3587 180.08 44.3587L180.081 44.3563ZM178.773 40.4272C178.81 41.4098 179.027 42.9374 179.826 43.2649C181.061 43.8112 191.85 40.0276 192.83 38.7175C193.339 38.0258 192.54 36.6436 191.994 35.8798C191.013 36.5715 188.435 38.3167 186.255 39.518C183.894 40.7914 180.225 40.5726 178.772 40.4272H178.773Z" fill="#FFFEFE" fill-opacity="0.55"/>
<path d="M183.569 47.2688H183.315C182.407 47.2321 181.753 46.9779 181.426 46.4683C180.7 45.4136 180.772 44.6132 180.954 44.1402C181.172 43.5585 181.717 43.1222 182.407 42.9034L191.634 40.0303C191.779 39.9936 191.961 39.9936 192.106 40.1024C192.288 40.2112 193.777 41.2304 193.995 42.4672C194.069 42.9768 193.959 43.4497 193.632 43.8493C192.579 45.1228 186.658 47.2688 183.57 47.2688H183.569ZM191.706 41.1571L182.661 43.9948C182.407 44.0681 182.044 44.2135 181.935 44.5411C181.79 44.8686 181.935 45.3415 182.299 45.8866C182.335 45.9587 182.553 46.1408 183.317 46.1774C186.222 46.3229 192.034 44.0314 192.761 43.1576C192.906 42.9755 192.942 42.8301 192.906 42.648C192.834 42.0663 192.143 41.4479 191.707 41.1558L191.706 41.1571Z" fill="white" fill-opacity="0.55"/>
<path d="M188.69 52.5396C188.363 52.5396 188.144 52.4663 187.999 52.3942C187.2 51.8124 185.419 48.1742 184.912 47.0462C184.876 46.9791 184.857 46.9042 184.857 46.8281C184.857 46.752 184.876 46.6771 184.912 46.61C184.984 46.4645 185.093 46.3558 185.239 46.3191L191.995 44.0998C192.141 44.0631 192.286 44.0631 192.394 44.1364C192.54 44.2085 192.613 44.3185 192.648 44.4639L194.501 50.1394C194.573 50.3936 194.464 50.6857 194.21 50.7944C191.16 52.14 189.561 52.5408 188.688 52.5408L188.69 52.5396ZM188.618 51.4849C189.126 51.5937 191.378 50.8299 193.34 49.9939L191.815 45.3011L186.148 47.1562L188.618 51.4849Z" fill="white" fill-opacity="0.55"/>
<defs>
<linearGradient id="paint0_linear_20005153_6356" x1="256.509" y1="126.697" x2="380.847" y2="126.697" gradientUnits="userSpaceOnUse">
<stop stop-color="#6366F1"/>
<stop offset="0.5" stop-color="#8B5CF6"/>
<stop offset="1" stop-color="#D946EF"/>
</linearGradient>
</defs>
</svg>
